<svg width="21" height="12" viewBox="0 0 21 12" fill="none" xmlns="http://www.w3.org/2000/svg">
<path d="M2.5 12C1.95 12 1.47917 11.8042 1.0875 11.4125C0.695833 11.0208 0.5 10.55 0.5 10V2C0.5 1.45 0.695833 0.979167 1.0875 0.5875C1.47917 0.195833 1.95 0 2.5 0H18.5C19.05 0 19.5208 0.195833 19.9125 0.5875C20.3042 0.979167 20.5 1.45 20.5 2V10C20.5 10.55 20.3042 11.0208 19.9125 11.4125C19.5208 11.8042 19.05 12 18.5 12H2.5ZM2.5 10H18.5V2H15.5V5C15.5 5.28333 15.4042 5.52083 15.2125 5.7125C15.0208 5.90417 14.7833 6 14.5 6C14.2167 6 13.9792 5.90417 13.7875 5.7125C13.5958 5.52083 13.5 5.28333 13.5 5V2H11.5V5C11.5 5.28333 11.4042 5.52083 11.2125 5.7125C11.0208 5.90417 10.7833 6 10.5 6C10.2167 6 9.97917 5.90417 9.7875 5.7125C9.59583 5.52083 9.5 5.28333 9.5 5V2H7.5V5C7.5 5.28333 7.40417 5.52083 7.2125 5.7125C7.02083 5.90417 6.78333 6 6.5 6C6.21667 6 5.97917 5.90417 5.7875 5.7125C5.59583 5.52083 5.5 5.28333 5.5 5V2H2.5V10Z" fill="black"/>
</svg>
